# xmcd CD database file
#
# Track frame offsets:
#	150
#	17274
#	34706
#	52058
#	65743
#	90668
#	110763
#	127155
#	145823
#	166501
#	188554
#	211103
#	235499
#	252841
#	268102
#	291992
#	313814
#	329797
#
# Disc length: 4612 seconds
#
# Revision: 0
# Processed by: cddbd v1.5.1PL2 Copyright (c) Steve Scherf et al.
# Submitted via: CDex 1.51
#
DISCID=11120212
DTITLE=Sabor Latino Vol.1 - Muevente Bien
DYEAR=1900
DGENRE=Salsa
TTITLE0=OCHO Y MEDIA - Atletico
TTITLE1=ZUMBAO - Coco Cacao
TTITLE2=GRUPO MANGO - La Pluma
TTITLE3=BATAOLA - Mon Grand Frère
TTITLE4=COLORBLIND - Whachacha
TTITLE5=MOSQUITO SALSA CLUB - Crazy For You
TTITLE6=MONICA Y SU MECANICA - Paris Te Mata
TTITLE7=P18 - Electronica
TTITLE8=MAMBOMANIA - Dame 5
TTITLE9=SON DEL CRAZO - Vacilando
TTITLE10=ELECTROVA - Cybersamba
TTITLE11=YOMIRA JOHN - El Baile Del Suavito
TTITLE12=CARLOS DE NICARAGUA FAMILIA - Oye Mujer
TTITLE13=EL CONJUNTO MASSALIA - Pa'qui 
TTITLE14=LA ORQUESTA COZUMEL - La Television
TTITLE15=TEMPO FORTE - Con El Cha-cha-cha
TTITLE16=LA CHARANGA CONTRADANZA - Son De Tu Luz
TTITLE17=EL PACTO CON LA PAZ - Muevete Bien
EXTD=
EXTT0=
EXTT1=
EXTT2=
EXTT3=
EXTT4=
EXTT5=
EXTT6=
EXTT7=
EXTT8=
EXTT9=
EXTT10=
EXTT11=
EXTT12=
EXTT13=
EXTT14=
EXTT15=
EXTT16=
EXTT17=
PLAYORDER=
